HIERARCHY
ROOT joint_0
{
	OFFSET 0.000000 0.000000 0.000000
	CHANNELS 6 Xposition Yposition Zposition Zrotation Yrotation Xrotation 
	JOINT joint_1
	{
		OFFSET 4.520508 -1.939880 86.268921
		CHANNELS 3 Zrotation Yrotation Xrotation
		JOINT joint_2
		{
			OFFSET -4.459717 -0.438538 78.934082
			CHANNELS 3 Zrotation Yrotation Xrotation
			JOINT joint_3
			{
				OFFSET -5.197754 -0.781128 78.796997
				CHANNELS 3 Zrotation Yrotation Xrotation
				JOINT joint_4
				{
					OFFSET 2.952026 -3.710571 109.812988
					CHANNELS 3 Zrotation Yrotation Xrotation
					JOINT joint_5
					{
						OFFSET 24.716797 -5.488037 87.903931
						CHANNELS 3 Zrotation Yrotation Xrotation
						End Site
						{
							OFFSET 0.000000 0.000000 0.000000
						}
					}
				}
				JOINT joint_6
				{
					OFFSET -3.154419 -25.484680 60.934937
					CHANNELS 3 Zrotation Yrotation Xrotation
					JOINT joint_7
					{
						OFFSET -28.997192 -144.472229 -32.671997
						CHANNELS 3 Zrotation Yrotation Xrotation
						JOINT joint_8
						{
							OFFSET 19.867676 -18.614380 -249.897949
							CHANNELS 3 Zrotation Yrotation Xrotation
							JOINT joint_9
							{
								OFFSET 5.281982 -13.816650 -264.993042
								CHANNELS 3 Zrotation Yrotation Xrotation
								End Site
								{
									OFFSET 0.000000 0.000000 0.000000
								}
							}
						}
					}
				}
				JOINT joint_10
				{
					OFFSET 6.494995 21.336792 62.257935
					CHANNELS 3 Zrotation Yrotation Xrotation
					JOINT joint_11
					{
						OFFSET 31.106567 145.200745 -27.007935
						CHANNELS 3 Zrotation Yrotation Xrotation
						JOINT joint_12
						{
							OFFSET 29.119141 24.684326 -248.460083
							CHANNELS 3 Zrotation Yrotation Xrotation
							JOINT joint_13
							{
								OFFSET 21.220093 31.248413 -262.703979
								CHANNELS 3 Zrotation Yrotation Xrotation
								End Site
								{
									OFFSET 0.000000 0.000000 0.000000
								}
							}
						}
					}
				}
			}
		}
	}
	JOINT joint_14
	{
		OFFSET -15.458496 -88.861694 -109.593018
		CHANNELS 3 Zrotation Yrotation Xrotation
		JOINT joint_15
		{
			OFFSET -6.193359 6.837952 -506.710999
			CHANNELS 3 Zrotation Yrotation Xrotation
			JOINT joint_16
			{
				OFFSET -35.096680 13.289795 -435.677025
				CHANNELS 3 Zrotation Yrotation Xrotation
				JOINT joint_17
				{
					OFFSET 158.491211 -33.916565 -71.771002
					CHANNELS 3 Zrotation Yrotation Xrotation
					End Site
					{
						OFFSET 0.000000 0.000000 0.000000
					}
				}
			}
		}
	}
	JOINT joint_18
	{
		OFFSET 23.116943 86.574158 -110.082031
		CHANNELS 3 Zrotation Yrotation Xrotation
		JOINT joint_19
		{
			OFFSET -6.125854 -0.283569 -506.757019
			CHANNELS 3 Zrotation Yrotation Xrotation
			JOINT joint_20
			{
				OFFSET -63.240234 11.589966 -432.537994
				CHANNELS 3 Zrotation Yrotation Xrotation
				JOINT joint_21
				{
					OFFSET 156.074219 -41.487305 -73.077999
					CHANNELS 3 Zrotation Yrotation Xrotation
					End Site
					{
						OFFSET 0.000000 0.000000 0.000000
					}
				}
			}
		}
	}
}
MOTION
Frames: 10
Frame Time: 0.016667
-1070.398926 990.570557 1139.696045 -0.239829 -0.367701 -0.241391 -0.098640 0.400308 0.067698 -0.105969 -0.082401 -0.014635 -0.102358 0.081497 0.015482 0.004325 0.116528 0.010513 0.000000 0.000000 0.000000 0.019928 0.185838 -0.128496 0.031897 0.070687 0.431724 -0.000406 -0.011950 -0.051698 0.000000 0.000000 0.000000 0.422804 0.085398 0.163215 -0.028515 0.108312 -0.335558 -0.018589 -0.113759 -0.062604 0.000000 0.000000 0.000000 0.123975 0.316329 -0.077262 0.123416 0.289387 -0.060952 0.105459 -0.027995 0.041762 0.000000 0.000000 0.000000 0.178515 0.373966 -0.080365 0.178644 0.344099 -0.088919 0.150247 -0.340627 -0.020200 0.000000 0.000000 0.000000 
-1070.437256 990.680786 1139.614990 -0.256314 -0.375060 -0.254317 -0.094984 0.415177 0.080394 -0.103234 -0.084186 -0.016658 -0.099634 0.077098 0.013667 0.004665 0.139940 0.014511 0.000000 0.000000 0.000000 0.011495 0.197409 -0.141629 0.033691 0.071497 0.460681 0.000115 -0.020226 -0.047228 0.000000 0.000000 0.000000 0.426331 0.081312 0.185318 -0.029865 0.110819 -0.348454 -0.017476 -0.108088 -0.057166 0.000000 0.000000 0.000000 0.135518 0.320298 -0.068792 0.134961 0.284576 -0.062205 0.117006 0.000546 0.053098 0.000000 0.000000 0.000000 0.220699 0.380375 -0.081995 0.220866 0.355739 -0.093553 0.188835 -0.340257 -0.002035 0.000000 0.000000 0.000000 
-1070.457642 990.773926 1139.609985 -0.272113 -0.389446 -0.259257 -0.091617 0.435169 0.080546 -0.099988 -0.088775 -0.016321 -0.096477 0.078050 0.011815 0.003925 0.160665 0.021750 0.000000 0.000000 0.000000 0.002687 0.204794 -0.138757 0.034379 0.074107 0.476650 0.000617 -0.028539 -0.043791 0.000000 0.000000 0.000000 0.429090 0.080101 0.194937 -0.029402 0.110395 -0.344500 -0.016853 -0.103687 -0.055936 0.000000 0.000000 0.000000 0.142177 0.327468 -0.066124 0.141745 0.294795 -0.066208 0.123127 0.015206 0.059007 0.000000 0.000000 0.000000 0.270223 0.383311 -0.095748 0.270156 0.380896 -0.088694 0.234869 -0.328208 0.022720 0.000000 0.000000 0.000000 
-1070.444336 990.840820 1139.755981 -0.289603 -0.413047 -0.248226 -0.089607 0.458886 0.054208 -0.096362 -0.101205 -0.010605 -0.092881 0.094891 0.012676 0.002068 0.170920 0.030636 0.000000 0.000000 0.000000 -0.001058 0.203549 -0.104376 0.032586 0.081787 0.464372 0.001072 -0.036867 -0.042757 0.000000 0.000000 0.000000 0.434840 0.084662 0.178198 -0.025278 0.102740 -0.305635 -0.017495 -0.103136 -0.064699 0.000000 0.000000 0.000000 0.141031 0.341726 -0.075821 0.140766 0.321003 -0.076141 0.120583 0.010966 0.056948 0.000000 0.000000 0.000000 0.334526 0.380066 -0.133682 0.333711 0.420841 -0.066309 0.295954 -0.286805 0.062325 0.000000 0.000000 0.000000 
-1070.412964 990.890686 1139.978027 -0.306428 -0.443477 -0.229032 -0.087916 0.488653 0.015685 -0.092350 -0.119871 -0.003410 -0.088835 0.120239 0.013745 -0.000772 0.176873 0.042060 0.000000 0.000000 0.000000 -0.004424 0.197636 -0.053601 0.029632 0.091140 0.438629 0.001515 -0.045182 -0.042330 0.000000 0.000000 0.000000 0.439855 0.091764 0.149177 -0.019335 0.091800 -0.249644 -0.018707 -0.104212 -0.078124 0.000000 0.000000 0.000000 0.135093 0.358858 -0.091534 0.135126 0.362608 -0.088985 0.112685 -0.007163 0.049491 0.000000 0.000000 0.000000 0.406190 0.373323 -0.183857 0.404358 0.474095 -0.034456 0.364514 -0.234216 0.108404 0.000000 0.000000 0.000000 
-1070.408691 990.945618 1140.147949 -0.315827 -0.475347 -0.214757 -0.089004 0.525396 -0.010944 -0.092031 -0.133110 -0.000348 -0.088235 0.139127 0.016207 -0.002760 0.180204 0.049871 0.000000 0.000000 0.000000 -0.005567 0.189949 -0.015881 0.027854 0.094615 0.421458 0.001873 -0.052026 -0.042306 0.000000 0.000000 0.000000 0.441690 0.096378 0.125296 -0.014782 0.082548 -0.206449 -0.019343 -0.102534 -0.088470 0.000000 0.000000 0.000000 0.128482 0.360089 -0.103503 0.129490 0.438289 -0.098274 0.103878 -0.039499 0.038583 0.000000 0.000000 0.000000 0.459612 0.360503 -0.225292 0.456857 0.548306 -0.003063 0.415846 -0.211599 0.138449 0.000000 0.000000 0.000000 
-1070.468262 991.015991 1140.207031 -0.315787 -0.508373 -0.210026 -0.093923 0.577282 -0.018604 -0.096753 -0.139844 0.001154 -0.092831 0.146606 0.017474 -0.003821 0.177116 0.052960 0.000000 0.000000 0.000000 -0.003170 0.179487 -0.003851 0.028551 0.086634 0.423049 0.002001 -0.054717 -0.042898 0.000000 0.000000 0.000000 0.437330 0.094892 0.115705 -0.013143 0.076506 -0.189569 -0.018778 -0.095492 -0.091846 0.000000 0.000000 0.000000 0.122770 0.332707 -0.108208 0.125897 0.568696 -0.102097 0.095593 -0.092408 0.023508 0.000000 0.000000 0.000000 0.481869 0.335927 -0.249898 0.478403 0.659723 0.024964 0.437453 -0.244773 0.139745 0.000000 0.000000 0.000000 
-1070.553833 991.091492 1140.213013 -0.308593 -0.542665 -0.210419 -0.101364 0.636378 -0.013923 -0.104900 -0.142444 -0.000582 -0.100790 0.148043 0.017977 -0.004321 0.171983 0.053597 0.000000 0.000000 0.000000 0.000900 0.167583 -0.003871 0.030462 0.073095 0.433606 0.002045 -0.056149 -0.044487 0.000000 0.000000 0.000000 0.429060 0.091059 0.112768 -0.012871 0.072830 -0.185824 -0.017640 -0.085789 -0.092040 0.000000 0.000000 0.000000 0.116359 0.289424 -0.109056 0.122276 0.732989 -0.102181 0.086389 -0.159462 0.004990 0.000000 0.000000 0.000000 0.485835 0.305218 -0.265407 0.481760 0.792178 0.052004 0.441725 -0.308313 0.124850 0.000000 0.000000 0.000000 
-1070.599365 991.152771 1140.203979 -0.294806 -0.579040 -0.214151 -0.108090 0.693179 -0.005933 -0.112604 -0.146086 -0.003897 -0.108028 0.150494 0.020821 -0.004029 0.171926 0.052548 0.000000 0.000000 0.000000 -0.004158 0.159639 -0.008390 0.032522 0.059819 0.447635 0.002201 -0.059295 -0.044901 0.000000 0.000000 0.000000 0.415745 0.088340 0.111797 -0.013080 0.073051 -0.189134 -0.016620 -0.077362 -0.091825 0.000000 0.000000 0.000000 0.108947 0.255798 -0.106315 0.117413 0.887403 -0.100485 0.076428 -0.225489 -0.013651 0.000000 0.000000 0.000000 0.484128 0.289866 -0.274502 0.479592 0.903833 0.074979 0.440755 -0.368523 0.108386 0.000000 0.000000 0.000000 
-1070.579224 991.195679 1140.188965 -0.272896 -0.619243 -0.221521 -0.114155 0.746383 0.003673 -0.119666 -0.154855 -0.005686 -0.114716 0.157477 0.022347 -0.003317 0.181627 0.052173 0.000000 0.000000 0.000000 -0.020841 0.157613 -0.014182 0.034521 0.048920 0.465000 0.002555 -0.065748 -0.044048 0.000000 0.000000 0.000000 0.395990 0.088368 0.115082 -0.013756 0.079920 -0.201223 -0.015797 -0.071510 -0.090253 0.000000 0.000000 0.000000 0.100126 0.238793 -0.099671 0.110709 1.025283 -0.096304 0.065380 -0.290990 -0.032671 0.000000 0.000000 0.000000 0.480382 0.298452 -0.277646 0.475547 0.981540 0.093414 0.438106 -0.415632 0.094619 0.000000 0.000000 0.000000 
